<svg fill='var(-- --heading)'   id="Icons" height="512" viewBox="0 0 74 74" width="512" xmlns="http://www.w3.org/2000/svg"><path d="m54.1 72h-34a7 7 0 0 1 -7-7v-56a7 7 0 0 1 7-7h34a7 7 0 0 1 7 7v56a7 7 0 0 1 -7 7zm-34-68a5 5 0 0 0 -5 5v56a5 5 0 0 0 5 5h34a5 5 0 0 0 5-5v-56a5 5 0 0 0 -5-5z"/><path d="m37.1 68a4 4 0 1 1 4-4 4 4 0 0 1 -4 4zm0-6a2 2 0 1 0 2 2 2 2 0 0 0 -2-2z"/><path d="m14.1 56h46v2h-46z"/><path d="m14.1 10h46v2h-46z"/><path d="m33.1 6h8v2h-8z"/><path d="m51.24 29.86a20 20 0 0 0 -28.28 0l-1.42-1.42a22 22 0 0 1 31.12 0z"/><path d="m47 34.1a14 14 0 0 0 -19.8 0l-1.41-1.41a16 16 0 0 1 22.62 0z"/><path d="m31.44 38.34-1.44-1.41a10 10 0 0 1 14.14 0l-1.41 1.41a8 8 0 0 0 -11.29 0z"/><path d="m37.1 48a4 4 0 1 1 4-4 4 4 0 0 1 -4 4zm0-6a2 2 0 1 0 2 2 2 2 0 0 0 -2-2z"/></svg>