<?xml version="1.0" encoding="UTF-8"?>
<svg fill="#c6a86c" xmlns="http://www.w3.org/2000/svg" id="Layer_1" data-name="Layer 1" viewBox="0 0 512 512" width="512" height="512"><path d="M469.583,325.039a25.745,25.745,0,0,0-10.6-15.929,25.668,25.668,0,0,0,7.675-18.319V59.65a26.62,26.62,0,0,0-26.591-26.59H71.937A26.62,26.62,0,0,0,45.346,59.65V290.791a25.668,25.668,0,0,0,7.675,18.319,25.745,25.745,0,0,0-10.6,15.929L5.28,444.232A5.994,5.994,0,0,0,5,446.044v6.306a26.621,26.621,0,0,0,26.591,26.59H480.409A26.621,26.621,0,0,0,507,452.35v-6.306a5.994,5.994,0,0,0-.28-1.812ZM57.346,59.65A14.607,14.607,0,0,1,71.937,45.06H440.063a14.607,14.607,0,0,1,14.591,14.59V290.791A13.771,13.771,0,0,1,440.9,304.545H71.1a13.771,13.771,0,0,1-13.756-13.754ZM54.127,327.675a13.78,13.78,0,0,1,13.5-11.13H444.371a13.78,13.78,0,0,1,13.5,11.13l34.973,112.369H329.408L320.962,414.5a6,6,0,0,0-5.7-4.117H196.734a6,6,0,0,0-5.7,4.117l-8.446,25.545H19.154ZM316.771,440.044H195.229l5.841-17.662H310.93ZM495,452.35a14.607,14.607,0,0,1-14.591,14.59H31.591A14.607,14.607,0,0,1,17,452.35v-.306H495Z"/><path d="M383,393.518a6,6,0,0,0-6-6H75.858l11.076-48.254H425.066l11.076,48.254H417a6,6,0,0,0,0,12h26.524a6.2,6.2,0,0,0,3.236-.849,6.008,6.008,0,0,0,2.762-6.494l-13.829-60.253a6,6,0,0,0-5.847-4.658H82.154a6,6,0,0,0-5.847,4.658L62.478,392.175a6.008,6.008,0,0,0,2.762,6.494,6.2,6.2,0,0,0,3.236.849H377A6,6,0,0,0,383,393.518Z"/><path d="M157.224,195.742H354.776a6,6,0,0,0,0-12H157.224a6,6,0,0,0,0,12Z"/><path d="M157.224,235.252H354.776a6,6,0,0,0,0-12H157.224a6,6,0,0,0,0,12Z"/><path d="M157.224,156.231h59.265a6,6,0,1,0,0-12H157.224a6,6,0,0,0,0,12Z"/><path d="M94.232,292.831h22.992a6,6,0,0,0,0-12H94.232A10.03,10.03,0,0,1,84.2,270.8V79.482A10.707,10.707,0,0,1,94.91,68.775H417.09A10.707,10.707,0,0,1,427.8,79.482V270.8a10.03,10.03,0,0,1-10.029,10.03H157.224a6,6,0,0,0,0,12H417.768A22.03,22.03,0,0,0,439.8,270.8V79.482A22.707,22.707,0,0,0,417.09,56.775H94.91A22.707,22.707,0,0,0,72.2,79.482V270.8A22.03,22.03,0,0,0,94.232,292.831Z"/></svg>
